HIERARCHY
ROOT Hips
{
	OFFSET 0.00000 0.00000 0.00000
	CHANNELS 6 Xposition Yposition Zposition Zrotation Yrotation Xrotation 
	JOINT LHipJoint
	{
		OFFSET 0 0 0
		CHANNELS 3 Zrotation Yrotation Xrotation
		JOINT LeftUpLeg
		{
			OFFSET 1.57338 -1.94743 0.52196
			CHANNELS 3 Zrotation Yrotation Xrotation
			JOINT LeftLeg
			{
				OFFSET 2.60333 -7.15259 0.00000
				CHANNELS 3 Zrotation Yrotation Xrotation
				JOINT LeftFoot
				{
					OFFSET 2.77855 -7.63400 0.00000
					CHANNELS 3 Zrotation Yrotation Xrotation
					JOINT LeftToeBase
					{
						OFFSET 0.19847 -0.54529 2.28466
						CHANNELS 3 Zrotation Yrotation Xrotation
						End Site
						{
							OFFSET 0.00000 -0.00000 1.17993
						}
					}
				}
			}
		}
	}
	JOINT RHipJoint
	{
		OFFSET 0 0 0
		CHANNELS 3 Zrotation Yrotation Xrotation
		JOINT RightUpLeg
		{
			OFFSET -1.61527 -1.94743 0.52196
			CHANNELS 3 Zrotation Yrotation Xrotation
			JOINT RightLeg
			{
				OFFSET -2.53829 -6.97390 0.00000
				CHANNELS 3 Zrotation Yrotation Xrotation
				JOINT RightFoot
				{
					OFFSET -2.80762 -7.71387 0.00000
					CHANNELS 3 Zrotation Yrotation Xrotation
					JOINT RightToeBase
					{
						OFFSET -0.30536 -0.83898 2.28801
						CHANNELS 3 Zrotation Yrotation Xrotation
						End Site
						{
							OFFSET -0.00000 -0.00000 1.21323
						}
					}
				}
			}
		}
	}
	JOINT LowerBack
	{
		OFFSET 0 0 0
		CHANNELS 3 Zrotation Yrotation Xrotation
		JOINT Spine
		{
			OFFSET -0.04381 1.99497 -0.19778
			CHANNELS 3 Zrotation Yrotation Xrotation
			JOINT Spine1
			{
				OFFSET -0.01959 2.01295 -0.04372
				CHANNELS 3 Zrotation Yrotation Xrotation
				JOINT Neck
				{
					OFFSET 0 0 0
					CHANNELS 3 Zrotation Yrotation Xrotation
					JOINT Neck1
					{
						OFFSET -0.05459 1.76913 0.09708
						CHANNELS 3 Zrotation Yrotation Xrotation
						JOINT Head
						{
							OFFSET 0.09461 1.77368 -0.11172
							CHANNELS 3 Zrotation Yrotation Xrotation
							End Site
							{
								OFFSET 0.03812 1.78157 -0.04834
							}
						}
					}
				}
				JOINT LeftShoulder
				{
					OFFSET 0 0 0
					CHANNELS 3 Zrotation Yrotation Xrotation
					JOINT LeftArm
					{
						OFFSET 3.50922 1.24034 -0.28866
						CHANNELS 3 Zrotation Yrotation Xrotation
						JOINT LeftForeArm
						{
							OFFSET 5.40188 -0.00000 0.00000
							CHANNELS 3 Zrotation Yrotation Xrotation
							JOINT LeftHand
							{
								OFFSET 3.68559 -0.00000 0.00000
								CHANNELS 3 Zrotation Yrotation Xrotation
								JOINT LeftFingerBase
								{
									OFFSET 0 0 0
									CHANNELS 3 Zrotation Yrotation Xrotation
									JOINT LeftHandIndex1
									{
										OFFSET 0.61753 -0.00000 0.00000
										CHANNELS 3 Zrotation Yrotation Xrotation
										End Site
										{
											OFFSET 0.49787 -0.00000 0.00000
										}
									}
								}
								JOINT LThumb
								{
									OFFSET 0 0 0
									CHANNELS 3 Zrotation Yrotation Xrotation
									End Site
									{
										OFFSET 0.50547 -0.00000 0.50547
									}
								}
							}
						}
					}
				}
				JOINT RightShoulder
				{
					OFFSET 0 0 0
					CHANNELS 3 Zrotation Yrotation Xrotation
					JOINT RightArm
					{
						OFFSET -2.95373 1.39649 -0.27346
						CHANNELS 3 Zrotation Yrotation Xrotation
						JOINT RightForeArm
						{
							OFFSET -6.10670 -0.00000 -0.00000
							CHANNELS 3 Zrotation Yrotation Xrotation
							JOINT RightHand
							{
								OFFSET -3.63052 -0.00000 0.00000
								CHANNELS 3 Zrotation Yrotation Xrotation
								JOINT RightFingerBase
								{
									OFFSET 0 0 0
									CHANNELS 3 Zrotation Yrotation Xrotation
									JOINT RightHandIndex1
									{
										OFFSET -0.58385 -0.00000 0.00000
										CHANNELS 3 Zrotation Yrotation Xrotation
										End Site
										{
											OFFSET -0.47071 -0.00000 0.00000
										}
									}
								}
								JOINT RThumb
								{
									OFFSET 0 0 0
									CHANNELS 3 Zrotation Yrotation Xrotation
									End Site
									{
										OFFSET -0.47790 -0.00000 0.47790
									}
								}
							}
						}
					}
				}
			}
		}
	}
}
MOTION
Frames: 6
Frame Time: .0083333
2.1810 34.2286 -5.1364 173.5660 -82.0748 -171.1940 0.0000 0.0000 0.0000 -17.0183 -14.6735 -24.4999 4.5536 12.8627 38.8566 -0.3905 -12.4237 10.7619 1.0852 6.6209 18.5971 0.0000 0.0000 0.0000 36.7749 17.6391 4.6849 -1.9830 -8.8306 25.2669 0.1467 -25.4780 -34.9641 -0.0076 -0.5630 1.5471 1.2187 10.6111 8.8640 -3.4010 14.0528 -0.4733 -5.8005 6.9019 -4.2062 -20.6091 -13.5807 66.3173 53.5790 -25.6121 -32.9211 44.2662 -21.2460 -7.8239 0.0000 -0.0000 0.0000 -73.8652 9.4083 11.2790 24.6783 -35.8734 -8.1006 -0.0000 0.0000 -4.5526 13.0971 18.5670 4.2368 -7.1250 0.0000 -0.0000 -14.5904 48.4513 -1.2671 0.0000 -0.0000 0.0000 92.6125 -6.4497 -14.7625 -83.4580 59.8377 -54.3375 0.0000 0.0000 81.6225 -145.9880 41.7577 -155.8003 7.1250 -0.0000 -0.0000 178.6401 17.1622 -179.1017
2.1788 34.2319 -5.1289 173.2190 -81.5873 -170.8530 0.0000 0.0000 0.0000 -17.0329 -14.7946 -24.3734 4.5424 12.8491 38.8063 -0.3782 -12.2473 10.6364 1.0900 6.6349 18.6381 0.0000 0.0000 0.0000 36.5806 17.6762 4.7935 -1.9670 -8.7971 25.1625 0.1395 -25.2821 -34.7305 -0.0060 -0.4993 1.3719 1.1072 10.6761 8.8311 -3.4781 14.1219 -0.4619 -5.8199 6.9386 -4.1763 -20.5942 -13.4316 66.3674 53.5028 -25.4742 -32.8164 44.4397 -21.1361 -7.9290 0.0000 0.0000 0.0000 -73.9143 9.4111 11.3754 24.3935 -35.5776 -7.9343 -0.0000 0.0000 -4.4097 13.0450 18.5531 4.2163 -7.1250 0.0000 -0.0000 -14.6340 48.4303 -1.2633 0.0000 0.0000 0.0000 92.7199 -6.0173 -15.0997 -83.1053 59.8196 -54.0326 0.0000 0.0000 82.0805 -145.8121 42.0895 -155.5192 7.1250 -0.0000 -0.0000 178.6246 17.5553 -179.1033
2.1771 34.2351 -5.1250 173.1730 -81.2388 -170.7770 0.0000 0.0000 0.0000 -16.9800 -14.9400 -24.2684 4.5164 12.8176 38.6894 -0.3584 -12.0173 10.5916 1.1662 6.8551 19.2869 0.0000 0.0000 0.0000 36.4745 17.7422 4.8097 -1.9693 -8.8018 25.1772 0.1252 -25.1298 -34.5993 -0.0044 -0.4304 1.1826 0.9997 10.6840 8.7511 -3.4922 14.1202 -0.4463 -5.7618 6.9410 -4.1381 -20.6877 -13.2233 66.3833 53.4286 -25.3569 -32.7151 44.6107 -21.0278 -7.9938 -0.0000 0.0000 0.0000 -74.1029 9.4258 11.3415 24.1448 -35.3170 -7.7901 -0.0000 0.0000 -4.1645 13.0933 18.5742 4.2370 -7.1250 0.0000 -0.0000 -14.5966 48.4578 -1.2701 -0.0000 0.0000 0.0000 92.7597 -5.6295 -15.3689 -82.9387 59.8107 -53.8886 0.0000 0.0000 82.4856 -145.6098 42.4438 -155.2068 7.1250 -0.0000 -0.0000 178.6131 17.9783 -179.1086
2.1752 34.2391 -5.1167 172.7750 -80.9495 -170.3570 0.0000 0.0000 0.0000 -16.9990 -15.1316 -24.1156 4.4786 12.7715 38.5188 -0.3332 -11.7353 10.5733 1.2588 7.1123 20.0486 0.0000 0.0000 0.0000 36.2855 17.7503 4.7417 -1.9853 -8.8354 25.2816 0.0916 -24.9071 -34.4836 -0.0030 -0.3531 0.9701 0.9222 10.6211 8.7073 -3.4975 14.0276 -0.4212 -5.7084 6.8972 -4.1133 -20.9537 -12.9055 66.3420 53.3554 -25.2562 -32.5560 44.7329 -20.9250 -7.9760 0.0000 0.0000 0.0000 -74.4717 9.4322 10.9699 23.9721 -35.1347 -7.6905 -0.0000 0.0000 -3.9340 12.9241 18.7247 4.2131 -7.1250 0.0000 -0.0000 -14.8099 48.5813 -1.3353 0.0000 0.0000 0.0000 92.6279 -5.3741 -15.3655 -82.9937 59.8137 -53.9362 0.0000 0.0000 82.7312 -145.4106 42.8098 -154.8915 7.1250 -0.0000 -0.0000 178.5941 18.4114 -179.1099
2.1759 34.2432 -5.1030 173.0480 -80.6366 -170.4520 0.0000 0.0000 0.0000 -16.8593 -15.4771 -24.0704 4.4415 12.7259 38.3507 -0.3133 -11.4376 10.3848 1.3161 7.2663 20.5068 0.0000 0.0000 0.0000 36.0923 17.8076 4.4784 -1.9986 -8.8632 25.3685 0.0358 -24.5506 -34.3159 -0.0053 -0.4716 1.2960 1.0090 10.5979 8.5419 -3.5366 14.0073 -0.4509 -5.7564 6.8895 -4.0255 -21.1080 -12.6839 66.3443 53.2917 -25.1722 -32.4808 44.8890 -20.8335 -8.0084 0.0000 -0.0000 0.0000 -74.6871 9.3365 10.8657 23.7488 -34.8975 -7.5623 -0.0000 0.0000 -3.8530 12.8034 18.6909 4.1653 -7.1250 0.0000 -0.0000 -14.9101 48.5309 -1.3258 0.0000 -0.0000 0.0000 92.5911 -5.1128 -15.5426 -83.1541 59.8222 -54.0748 0.0000 0.0000 83.0556 -145.1528 43.2426 -154.4994 7.1250 -0.0000 -0.0000 178.5793 18.9304 -179.1168
2.1757 34.2460 -5.0859 173.8090 -80.1705 -170.9650 0.0000 0.0000 0.0000 -16.7625 -15.5397 -24.1897 4.4016 12.6765 38.1692 -0.3372 -11.5200 9.9008 1.1093 6.6917 18.8052 0.0000 0.0000 0.0000 35.8932 17.8369 4.1331 -2.0104 -8.8876 25.4444 0.0606 -24.2507 -33.7554 -0.0026 -0.3279 0.9009 1.1795 10.6494 8.3130 -3.5883 14.0962 -0.5401 -5.8609 6.9352 -3.9315 -21.2206 -12.4746 66.4320 53.2329 -25.0831 -32.3701 45.0620 -20.7532 -8.0464 -0.0000 0.0000 0.0000 -74.8999 9.2586 10.7853 23.5248 -34.6577 -7.4346 -0.0000 0.0000 -3.3951 12.1576 18.6849 3.9481 -7.1250 0.0000 -0.0000 -15.5096 48.4327 -1.3432 -0.0000 0.0000 0.0000 92.6356 -4.8483 -15.8359 -83.1205 59.8204 -54.0458 0.0000 0.0000 83.3927 -144.9937 43.5462 -154.2421 7.1250 -0.0000 -0.0000 178.5566 19.2865 -179.1141
